<svg width="56" height="56" viewBox="0 0 56 56" fill="none" xmlns="http://www.w3.org/2000/svg">
<path fill-rule="evenodd" clip-rule="evenodd" d="M28 50.4C40.3712 50.4 50.4 40.3712 50.4 28C50.4 15.6288 40.3712 5.6 28 5.6C15.6288 5.6 5.6 15.6288 5.6 28C5.6 40.3712 15.6288 50.4 28 50.4ZM26.7532 20.0703C25.894 19.4975 24.7892 19.4441 23.8788 19.9313C22.9684 20.4186 22.4 21.3674 22.4 22.4V33.6C22.4 34.6326 22.9684 35.5814 23.8788 36.0687C24.7892 36.5559 25.894 36.5025 26.7532 35.9297L35.1532 30.3297C35.9321 29.8104 36.4 28.9362 36.4 28C36.4 27.0638 35.9321 26.1896 35.1532 25.6703L26.7532 20.0703Z" fill="#111827"/>
</svg>
